<?xml version="1.0" encoding="utf-8"?>
<!-- Generator: Adobe Illustrator 16.0.4, SVG Export Plug-In . SVG Version: 6.00 Build 0)  -->
<!DOCTYPE svg PUBLIC "-//W3C//DTD SVG 1.1//EN" "http://www.w3.org/Graphics/SVG/1.1/DTD/svg11.dtd">
<svg version="1.1" id="Layer_1" xmlns="http://www.w3.org/2000/svg" xmlns:xlink="http://www.w3.org/1999/xlink" x="0px" y="0px"
	 width="32px" height="32px" viewBox="0 0 32 32" enable-background="new 0 0 32 32" xml:space="preserve">
<g>
	<path fill="#282828" d="M9.946,8.163c0.083,0.029,0.17,0.032,0.258,0.032h11.647h0.002c0.084,0,0.17-0.001,0.248-0.029
		c2.11-0.727,2.273-2.436,2.273-2.944c0-1.371-1.105-2.485-2.473-2.503C21.105,1.536,19.561,0.94,18.16,1.36
		c-0.746-0.853-1.815-1.346-2.966-1.346c-1.614,0-3.03,0.973-3.64,2.409c-1.74-0.346-3.605,1.183-3.605,2.903
		C7.949,5.822,8.094,7.497,9.946,8.163z M11.675,4.08c0.216,0.124,0.477,0.136,0.702,0.029c0.226-0.105,0.386-0.313,0.429-0.559
		c0.207-1.163,1.211-2.008,2.39-2.008c0.837,0,1.607,0.43,2.06,1.15c0.21,0.335,0.645,0.457,0.997,0.273
		c0.979-0.506,2.116-0.045,2.535,0.882c0.149,0.332,0.517,0.508,0.866,0.43c0.082-0.019,0.152-0.027,0.217-0.027
		c0.539,0,0.979,0.438,0.979,0.978c0,0.389-0.149,1.082-1.131,1.465L10.35,6.68C9.593,6.354,9.477,5.698,9.477,5.326
		C9.477,4.415,10.734,3.545,11.675,4.08z"/>
	<path fill="#282828" d="M11.805,9.417c-0.001,0-0.003,0-0.004,0c-0.281,0-0.507,0.159-0.505,0.44
		c0.005,0.556-0.161,2.101-0.963,2.911c-0.342,0.343-0.759,0.509-1.275,0.509c-0.282,0-0.51,0.229-0.51,0.509
		c0,0.282,0.228,0.51,0.51,0.51c0.791,0,1.464-0.237,1.998-0.775c1.263-1.273,1.26-3.573,1.259-3.673
		C12.313,9.569,12.085,9.417,11.805,9.417z"/>
	<path fill="#282828" d="M23.007,13.296c-0.517,0-0.933-0.148-1.272-0.49c-0.965-0.969-0.965-2.93-0.965-2.95
		c0-0.281-0.227-0.44-0.508-0.44c-0.002,0-0.002,0-0.003,0c-0.278,0-0.508,0.152-0.509,0.432c-0.001,0.1-0.004,2.364,1.259,3.637
		c0.533,0.538,1.206,0.811,1.998,0.811c0.281,0,0.511-0.219,0.511-0.5C23.518,13.515,23.288,13.296,23.007,13.296z"/>
	<path fill="#282828" d="M12.593,26.672H8.439c-0.288,0-0.52,0.214-0.52,0.497c0,0.281,0.231,0.496,0.52,0.496h4.153
		c0.286,0,0.519-0.215,0.519-0.496C13.111,26.886,12.879,26.672,12.593,26.672z"/>
	<path fill="#282828" d="M23.648,26.672h-4.275c-0.296,0-0.535,0.214-0.535,0.497c0,0.281,0.239,0.496,0.535,0.496h4.275
		c0.295,0,0.533-0.215,0.533-0.496C24.182,26.886,23.943,26.672,23.648,26.672z"/>
	<circle fill="#282828" cx="5.037" cy="12.324" r="2.218"/>
	<path fill="#282828" d="M8.455,23.618c0.494,0,0.897-0.417,0.898-0.912c0.014-4.608-1.481-6.449-2.521-7.164l-1.846,2.547
		l-1.732-2.388c-1.039,0.714-2.534,2.552-2.521,7.16c0.002,0.496,0.403,0.908,0.899,0.908h0.002c0.496,0,0.903-0.418,0.901-0.914
		c-0.004-1.342,0.038-2.391,0.344-3.191v2.9c0,0.418,0.152,0.808,0.305,1.143v7.277c0,0.496,0.42,0.898,0.916,0.898
		s0.917-0.402,0.917-0.898l0.076-0.006c0,0.496,0.411,0.904,0.906,0.904c0.496,0,0.927-0.414,0.927-0.91V23.55
		c0.152-0.335,0.305-0.725,0.305-1.143v-2.901c0.229,0.801,0.335,1.852,0.33,3.195c-0.001,0.496,0.395,0.917,0.891,0.917H8.455z"/>
	<path fill="#282828" d="M6.124,14.783L5.6,15.003c-0.108-0.186-0.307-0.312-0.536-0.312S4.637,14.817,4.528,15l-0.527-0.225
		c-0.075-0.034-0.17-0.025-0.239,0.021c-0.07,0.046-0.118,0.124-0.118,0.208v0.655c0,0.079,0.044,0.153,0.107,0.2
		c0.063,0.047,0.148,0.061,0.224,0.038c0.206-0.063,0.463-0.14,0.608-0.186c0.114,0.138,0.286,0.228,0.479,0.228
		c0.186,0,0.354-0.084,0.468-0.215c0.148,0.045,0.408,0.124,0.619,0.187c0.074,0.023,0.157,0.009,0.219-0.039
		c0.064-0.047,0.101-0.121,0.101-0.199v-0.66c0-0.083-0.042-0.162-0.11-0.207C6.288,14.758,6.2,14.75,6.124,14.783z"/>
	<circle fill="#282828" cx="15.993" cy="12.325" r="2.218"/>
	<path fill="#282828" d="M19.411,23.618c0.495,0,0.897-0.417,0.897-0.912c0.016-4.608-1.479-6.449-2.521-7.164l-1.846,2.547
		l-1.732-2.388c-1.039,0.714-2.534,2.552-2.52,7.16c0.001,0.496,0.403,0.908,0.898,0.908h0.002c0.496,0,0.884-0.418,0.883-0.914
		c-0.004-1.342,0.019-2.391,0.323-3.191v2.9c0,0.418,0.153,0.808,0.307,1.143v7.277c0,0.496,0.438,0.898,0.935,0.898
		s0.926-0.402,0.926-0.898l0.081-0.006c0,0.496,0.394,0.904,0.891,0.904c0.496,0,0.91-0.414,0.91-0.91V23.55
		c0.151-0.335,0.305-0.725,0.305-1.143v-2.901c0.229,0.801,0.354,1.852,0.351,3.195c-0.002,0.496,0.412,0.917,0.908,0.917H19.411z"
		/>
	<path fill="#282828" d="M17.08,14.783l-0.523,0.221c-0.107-0.186-0.309-0.312-0.538-0.312c-0.228,0-0.426,0.125-0.534,0.308
		l-0.526-0.225c-0.076-0.034-0.151-0.025-0.221,0.021c-0.07,0.046-0.1,0.124-0.1,0.208v0.655c0,0.079,0.024,0.153,0.089,0.2
		c0.063,0.047,0.138,0.061,0.214,0.038c0.206-0.063,0.458-0.14,0.604-0.186c0.114,0.138,0.282,0.228,0.477,0.228
		c0.187,0,0.352-0.084,0.466-0.215c0.149,0.045,0.409,0.124,0.62,0.187c0.074,0.023,0.176,0.009,0.238-0.039
		c0.062-0.047,0.118-0.121,0.118-0.199v-0.66c0-0.083-0.062-0.162-0.13-0.207C17.264,14.758,17.157,14.75,17.08,14.783z"/>
	<circle fill="#282828" cx="26.95" cy="12.324" r="2.218"/>
	<path fill="#282828" d="M28.746,15.542L26.9,18.089l-1.733-2.388c-1.038,0.714-2.534,2.552-2.521,7.16
		c0.002,0.496,0.404,0.908,0.898,0.908h0.002c0.496,0,0.903-0.418,0.902-0.914c-0.006-1.342,0.037-2.391,0.343-3.191v2.9
		c0,0.418,0.151,0.808,0.306,1.143v7.277c0,0.496,0.42,0.898,0.916,0.898c0.495,0,0.916-0.402,0.916-0.898l0.076-0.006
		c0,0.496,0.411,0.904,0.907,0.904s0.926-0.414,0.926-0.91V23.55c0.152-0.335,0.306-0.725,0.306-1.143v-2.901
		c0.229,0.801,0.336,1.852,0.33,3.195c0,0.496,0.395,0.917,0.891,0.917h0.002c0.496,0,0.896-0.417,0.898-0.912
		C31.279,18.098,29.785,16.257,28.746,15.542z"/>
	<path fill="#282828" d="M28.037,14.783l-0.525,0.221c-0.107-0.186-0.307-0.312-0.537-0.312c-0.229,0-0.425,0.125-0.533,0.308
		l-0.525-0.225c-0.077-0.034-0.172-0.025-0.241,0.021s-0.116,0.124-0.116,0.208v0.655c0,0.079,0.043,0.153,0.105,0.2
		c0.062,0.047,0.148,0.061,0.223,0.038c0.207-0.063,0.465-0.14,0.609-0.186c0.115,0.138,0.286,0.228,0.479,0.228
		c0.188,0,0.354-0.084,0.469-0.215c0.147,0.045,0.41,0.124,0.617,0.187c0.076,0.023,0.158,0.009,0.222-0.039
		c0.063-0.047,0.101-0.121,0.101-0.199v-0.66c0-0.083-0.042-0.162-0.111-0.207C28.201,14.758,28.113,14.75,28.037,14.783z"/>
</g>
</svg>
