<?xml version="1.0" encoding="utf-8"?>
<!-- Generator: Adobe Illustrator 16.0.4, SVG Export Plug-In . SVG Version: 6.00 Build 0)  -->
<!DOCTYPE svg PUBLIC "-//W3C//DTD SVG 1.1//EN" "http://www.w3.org/Graphics/SVG/1.1/DTD/svg11.dtd">
<svg version="1.1" id="Layer_1" xmlns="http://www.w3.org/2000/svg" xmlns:xlink="http://www.w3.org/1999/xlink" x="0px" y="0px"
	 width="32px" height="32px" viewBox="0 0 32 32" enable-background="new 0 0 32 32" xml:space="preserve">
<g>
	<path fill="#282828" d="M6.25,13.617c-0.569,0-1.027,0.46-1.027,1.027v4.111c0,0.568,0.458,1.028,1.027,1.028
		c0.567,0,1.026-0.46,1.026-1.028v-4.111C7.276,14.077,6.817,13.617,6.25,13.617z"/>
	<path fill="#282828" d="M11.351,24.402c-0.11,0-0.217,0.018-0.321,0.047c-0.325-0.967-1.067-1.648-1.947-1.664
		c-0.358-0.006-0.692,0.107-0.993,0.298c-0.453-0.96-1.266-1.612-2.213-1.63c-1.304-0.021-2.401,1.158-2.649,2.736
		C2.977,24,2.689,23.883,2.379,23.877c-0.957-0.018-1.933,1.059-1.953,2.273c-0.004,0.213-0.029,1.668,1.196,2.256l9.707,0.025
		c1.468-0.613,1.427-1.953,1.431-2.164C12.777,25.252,12.146,24.417,11.351,24.402z"/>
	<path fill="#282828" d="M30.913,1.637h-8.571c-0.554,0-1.011,0.417-1.011,0.971v6.689c0,0.554,0.457,1.025,1.011,1.025h3.254v1.106
		h-1.242c-0.502,0-0.889,0.409-0.889,0.911v0.589h6.001V12.34c0-0.502-0.434-0.911-0.938-0.911h-1.115v-1.106h3.501
		c0.554,0,1.001-0.472,1.001-1.025V2.607C31.914,2.054,31.467,1.637,30.913,1.637z M30.492,8.822h-7.659V3.137h7.659V8.822z"/>
	<path fill="#282828" d="M18.6,6.453c0.569,0,1.028-0.458,1.028-1.026c0-0.568-0.459-1.027-1.028-1.027h-4.111
		c-0.567,0-1.027,0.458-1.027,1.026c0,0.568,0.46,1.026,1.027,1.026L18.6,6.453L18.6,6.453z"/>
	<path fill="#282828" d="M19.628,23.904h-4.111c-0.567,0-1.028,0.459-1.028,1.027c0,0.566,0.461,1.025,1.028,1.025h4.111
		c0.569,0,1.028-0.459,1.028-1.025C20.656,24.363,20.197,23.904,19.628,23.904z"/>
	<path fill="#282828" d="M27.887,18.756v-4.111c0-0.567-0.459-1.027-1.027-1.027c-0.566,0-1.024,0.46-1.024,1.027v4.111
		c0,0.568,0.458,1.028,1.024,1.028C27.428,19.784,27.887,19.324,27.887,18.756z"/>
	<path fill="#282828" d="M6.171,8.548c2.209,0,4.001-1.792,4.001-4.001c0-2.212-1.792-4.002-4.001-4.002
		c-2.213,0-4.003,1.79-4.003,4.002C2.168,6.756,3.958,8.548,6.171,8.548z"/>
	<path fill="#282828" d="M7.539,12.938c0.229,0.245,0.368,0.556,0.368,0.893v0.52h2.677c0.402,0,0.772-0.219,0.966-0.571
		c0.194-0.352,0.18-0.783-0.037-1.122c-0.7-1.098-1.451-1.852-2.104-2.3L7.539,12.938z"/>
	<path fill="#282828" d="M4.591,13.83c0-0.239,0.071-0.465,0.194-0.664l-1.83-2.52c-0.587,0.403-1.253,1.05-1.892,1.979
		c-0.231,0.337-0.258,0.775-0.066,1.137c0.19,0.362,0.565,0.588,0.975,0.588h2.619V13.83z"/>
	<path fill="#282828" d="M8.544,10.945c0.115-0.086,0.153-0.22,0.153-0.359V9.394c0-0.149-0.047-0.291-0.171-0.373
		c-0.129-0.083-0.257-0.097-0.393-0.04L7.187,9.38C6.99,9.045,6.632,8.818,6.217,8.818c-0.413,0-0.771,0.225-0.966,0.554
		l-0.95-0.406c-0.136-0.06-0.312-0.044-0.438,0.037c-0.128,0.084-0.22,0.225-0.22,0.376v1.182c0,0.144,0.084,0.276,0.199,0.36
		c0.113,0.085,0.271,0.11,0.407,0.068c0.371-0.113,0.837-0.253,1.1-0.334c0.204,0.249,0.517,0.41,0.866,0.41
		c0.334,0,0.637-0.15,0.845-0.386c0.269,0.08,0.734,0.223,1.115,0.334C8.31,11.056,8.434,11.031,8.544,10.945z"/>
	<path fill="#282828" d="M22.596,30.111c0,0.541,0.438,0.979,0.979,0.979h6.334c0.54,0,0.979-0.438,0.979-0.979v-8.309
		c0-0.539-0.438-0.979-0.979-0.979h-6.334c-0.54,0-0.979,0.438-0.979,0.979V30.111z M26.768,30.348
		c-0.353,0-0.638-0.287-0.638-0.639c0-0.354,0.285-0.639,0.638-0.639s0.639,0.285,0.639,0.639
		C27.404,30.061,27.119,30.348,26.768,30.348z M26.794,28.684c-0.567,0-1.024-0.461-1.024-1.026c0-0.567,0.457-1.027,1.024-1.027
		s1.026,0.46,1.026,1.027C27.82,28.223,27.361,28.684,26.794,28.684z M23.779,22.246h5.923v1.501h-5.923V22.246z"/>
</g>
</svg>
