<?xml version="1.0" encoding="utf-8"?>
<!-- Generator: Adobe Illustrator 16.0.4, SVG Export Plug-In . SVG Version: 6.00 Build 0)  -->
<!DOCTYPE svg PUBLIC "-//W3C//DTD SVG 1.1//EN" "http://www.w3.org/Graphics/SVG/1.1/DTD/svg11.dtd">
<svg version="1.1" id="Layer_1" xmlns="http://www.w3.org/2000/svg" xmlns:xlink="http://www.w3.org/1999/xlink" x="0px" y="0px"
	 width="32px" height="32px" viewBox="0 0 32 32" enable-background="new 0 0 32 32" xml:space="preserve">
<g>
	<path fill="#262626" d="M14.884,6.729c1.796,0,3.249-1.456,3.249-3.25c0-1.796-1.453-3.25-3.249-3.25
		c-1.799,0-3.252,1.455-3.252,3.25C11.632,5.272,13.085,6.729,14.884,6.729z"/>
	<path fill="#262626" d="M12.209,18.255c-0.176-0.176-0.309-0.176-0.486,0l-0.068,0.085c0.048,0.499,0.18,0.965,0.386,1.376v10.667
		c0,0.73,0.614,1.316,1.34,1.316c0.728,0,1.338-0.586,1.338-1.316V21.32c0,0.006,0.139,0.011,0.209,0.011
		c0.065,0,0.202-0.005,0.202-0.011v9.062c0,0.73,0.612,1.316,1.339,1.316c0.729,0,1.34-0.586,1.34-1.316V22.79
		c-0.617,0.021-1.267-0.196-1.723-0.656L12.209,18.255z"/>
	<path fill="#262626" d="M13.558,10.606l3.947,3.947c0.181,0.176,0.315,0.17,0.493-0.005l0.223-0.221v-1.183l0.521,0.656
		l1.852-1.852L17.57,8.231l-2.688,3.504l-2.726-3.756C11.35,8.534,10.354,9.552,9.6,11.392l0.786-0.785
		C11.229,9.759,12.71,9.757,13.558,10.606z"/>
	<path fill="#262626" d="M16.476,7.081l-0.771,0.325c-0.157-0.273-0.446-0.457-0.784-0.457c-0.336,0-0.624,0.181-0.785,0.45
		l-0.77-0.331c-0.113-0.048-0.239-0.037-0.341,0.031c-0.103,0.068-0.161,0.182-0.161,0.304v0.96c0,0.115,0.051,0.225,0.144,0.293
		c0.095,0.068,0.212,0.089,0.322,0.055c0.303-0.091,0.676-0.207,0.891-0.271c0.168,0.202,0.416,0.333,0.7,0.333
		c0.273,0,0.519-0.124,0.684-0.315c0.219,0.066,0.602,0.182,0.909,0.273c0.11,0.034,0.23,0.012,0.322-0.057
		c0.094-0.068,0.146-0.178,0.146-0.293V7.416c0-0.122-0.062-0.235-0.164-0.303C16.719,7.044,16.589,7.033,16.476,7.081z"/>
	<path fill="#262626" d="M31.193,6.166c-0.269-0.271-0.633-0.442-1.014-0.442h-6.258c-0.178,0-0.337,0.125-0.402,0.288
		c-0.068,0.164-0.031,0.36,0.094,0.485l1.21,1.209c0.19,0.19,0.297,0.45,0.297,0.718c0,0.27-0.106,0.528-0.297,0.718l-6.124,6.121
		c-0.524,0.524-1.374,0.524-1.898-0.001l-3.95-3.95c-0.233-0.233-0.549-0.364-0.88-0.365c-0.332,0-0.647,0.132-0.882,0.365
		L0.816,21.582c-0.486,0.486-0.486,1.273,0,1.762l1.324,1.324c0.233,0.232,0.55,0.365,0.88,0.365c0.331,0,0.648-0.133,0.882-0.365
		l7.118-7.118c0.251-0.251,0.593-0.393,0.95-0.393c0.355,0,0.697,0.142,0.949,0.393l3.881,3.882
		c0.251,0.252,0.595,0.395,0.949,0.395c0.356,0,0.698-0.143,0.949-0.393l9.21-9.211c0.189-0.19,0.447-0.296,0.716-0.296
		c0.271,0,0.526,0.106,0.717,0.297l1.423,1.425c0.123,0.124,0.31,0.163,0.473,0.096c0.162-0.064,0.271-0.222,0.272-0.397
		l0.093-6.144C31.605,6.822,31.46,6.437,31.193,6.166z"/>
</g>
</svg>
